<?xml version="1.0" encoding="UTF-8"?>
<svg id="Layer_1" xmlns="http://www.w3.org/2000/svg" version="1.1" viewBox="0 0 855.6 576.8">
  <!-- Generator: Adobe Illustrator 29.0.1, SVG Export Plug-In . SVG Version: 2.1.0 Build 192)  -->
  <defs>
    <style>
      .st0, .st1 {
        fill: #1fc7f5;
      }

      .st1 {
        fill-rule: evenodd;
      }
    </style>
  </defs>
  <g>
    <path class="st0" d="M41.8,573.1c.2.1.4.3.6.6.2.3.3.7.3,1.1v1.6h-7.2v-1.4c0-.4,0-.8.1-1,0-.2.2-.4.3-.6.1-.1.2-.3.3-.4.1-.1.2-.3.2-.6-.1-.7-.2-1.3-.3-1.8,0-.5-.1-.8-.2-1.1,0-.3-.1-.5-.2-.6,0-.1-.2-.2-.4-.2h-3.6c-.2,0-.4,0-.5,0-.1,0-.2.2-.2.4,0,.1,0,.4,0,.7,0,.3,0,.7,0,1.1,0,.4-.1.9-.2,1.4,0,.3,0,.5.1.6s.2.3.3.5.2.3.3.5c0,.2.1.5.1.9v1.4h-7.1v-1.6c0-.4,0-.7.2-.9.1-.2.3-.4.4-.6s.3-.3.5-.5.3-.4.4-.6l2.2-10.3c.3-1.3.5-2.5.8-3.8.3-1.2.5-2.4.7-3.3.2-1,.4-1.8.5-2.4.1-.6.2-.9.2-1v-.2c0-.2,0-.4-.2-.5-.1-.1-.2-.3-.4-.4-.1-.2-.3-.4-.4-.6-.1-.3-.2-.7-.2-1.2v-1.4c1.4,0,2.5,0,3.4,0,.9,0,1.6,0,2.1.1.5.1.9.3,1.2.5.2.2.4.6.6,1.1,0,.1.1.5.3,1.2.1.7.3,1.6.6,2.7.2,1.1.5,2.4.8,3.8.3,1.4.6,2.8.9,4.3.7,3.4,1.5,7.2,2.4,11.4,0,.2.1.4.2.5.1.1.2.2.4.3ZM35,565c.3,0,.5-.1.4-.4l-.9-5.4c-.1-.7-.2-1.3-.4-2-.1-.7-.2-1.2-.3-1.8,0-.5-.2-.9-.2-1.3,0-.3,0-.5,0-.5h0s0,.3-.1.8-.2,1.2-.3,1.9c-.1.8-.3,1.6-.4,2.6-.2.9-.3,1.8-.5,2.6-.1.8-.3,1.5-.4,2.1,0,.6-.1.9-.1,1,0,.2,0,.3,0,.4,0,0,.2,0,.5,0h2.7Z"/>
    <path class="st0" d="M69.8,547v1.6c0,.4,0,.7,0,1,0,.3-.2.6-.5.8-.1.1-.2.2-.3.3,0,0-.1.3-.1.5v24.1c0,.3,0,.5-.2.6-.1.2-.3.3-.6.3h-2.3c-.4,0-.6-.2-.8-.5-.2-.3-.4-.7-.5-1.1,0-.2-.2-.6-.5-1.3-.3-.7-.6-1.6-1-2.6-.4-1-.8-2.1-1.2-3.2-.4-1.1-.8-2.2-1.2-3.2-.4-1-.7-1.8-.9-2.4-.2-.6-.4-1-.4-1,0,0,0,0,0,0,0,0,0,0,0,.2v10.9c0,.3,0,.4.1.5,0,.1.2.2.3.3.2.2.4.4.6.7.2.3.3.7.3,1.1v1.6h-7.2v-1.6c0-.4,0-.7.3-1,.2-.3.4-.6.7-.8.1-.1.2-.2.3-.3,0,0,0-.2,0-.4v-21.1c-.3,0-.5-.2-.7-.4-.2-.2-.3-.4-.5-.7-.1-.3-.2-.7-.2-1.1v-1.8h3.4c.3,0,.7,0,1,.2s.7.5.9,1.1c0,0,.2.4.4,1.1.3.7.6,1.5,1,2.5.4,1,.8,2.1,1.3,3.3.5,1.2.9,2.3,1.3,3.4.4,1.1.8,2.1,1.1,2.9.3.8.5,1.4.6,1.8,0,0,0,0,0,0,0,0,0-.1,0-.2v-11.7c0-.3,0-.4-.1-.5,0-.1-.2-.2-.3-.3-.2-.2-.4-.4-.6-.7-.2-.3-.3-.7-.3-1.1v-1.6h6.9Z"/>
    <path class="st0" d="M105.6,572.1c0,.3,0,.4,0,.5,0,.1.2.2.3.3.2.2.4.4.6.7.2.3.3.7.3,1.1v1.6h-7.3v-1.6c0-.4.1-.8.3-1.1s.4-.5.6-.7c.1-.1.2-.2.3-.3,0-.1.1-.3.1-.5h0v-20.8c0-.3,0-.4-.1-.5,0-.1-.2-.2-.3-.3-.2-.2-.4-.4-.6-.7s-.3-.7-.3-1.1v-1.7h7.3v1.7c0,.4-.1.8-.3,1.1-.2.3-.4.5-.6.7-.1.1-.2.2-.3.3,0,.1,0,.3,0,.5v20.7Z"/>
    <path class="st0" d="M134.4,547v1.6c0,.4,0,.7,0,1,0,.3-.2.6-.5.8-.1.1-.2.2-.3.3,0,0-.1.3-.1.5v24.1c0,.3,0,.5-.2.6s-.3.3-.6.3h-2.3c-.4,0-.6-.2-.8-.5-.2-.3-.4-.7-.5-1.1,0-.2-.2-.6-.5-1.3-.3-.7-.6-1.6-1-2.6-.4-1-.8-2.1-1.2-3.2-.4-1.1-.8-2.2-1.2-3.2-.4-1-.7-1.8-.9-2.4-.2-.6-.4-1-.4-1,0,0,0,0,0,0,0,0,0,0,0,.2v10.9c0,.3,0,.4.1.5,0,.1.2.2.3.3.2.2.4.4.6.7.2.3.3.7.3,1.1v1.6h-7.2v-1.6c0-.4,0-.7.3-1,.2-.3.4-.6.7-.8.1-.1.2-.2.3-.3,0,0,0-.2,0-.4v-21.1c-.3,0-.5-.2-.7-.4-.2-.2-.3-.4-.5-.7-.1-.3-.2-.7-.2-1.1v-1.8h3.4c.3,0,.7,0,1,.2s.7.5.9,1.1c0,0,.2.4.4,1.1.3.7.6,1.5,1,2.5.4,1,.8,2.1,1.3,3.3.5,1.2.9,2.3,1.3,3.4.4,1.1.8,2.1,1.1,2.9.3.8.5,1.4.6,1.8,0,0,0,0,0,0,0,0,0-.1,0-.2v-11.7c0-.3,0-.4-.1-.5,0-.1-.2-.2-.3-.3-.2-.2-.4-.4-.6-.7-.2-.3-.3-.7-.3-1.1v-1.6h6.9Z"/>
    <path class="st0" d="M160.5,547.4c.3.3.4.7.4,1.4v3.6h-1.7c-.8,0-1.3-.4-1.7-1.1-.1-.3-.3-.4-.5-.5-.2,0-.3,0-.5,0h-.7c-.2,0-.3,0-.4.2s-.2.3-.2.5v20.6c0,.3,0,.4.1.5,0,.1.2.2.3.3.2.2.4.4.6.7.2.3.3.7.3,1.1v1.7h-7.2v-1.7c0-.4.1-.8.3-1.1.2-.3.4-.5.6-.7.1,0,.2-.2.3-.3,0-.1,0-.3,0-.5v-20.6c0-.2,0-.4-.2-.5-.1,0-.3-.1-.4-.1h-.7c-.1,0-.3,0-.5.1-.2,0-.4.2-.5.5-.2.4-.3.6-.5.8-.1.2-.5.3-1.2.3h-1.8v-3.7c0-.6,0-1,.3-1.4.2-.3.6-.5,1.3-.5h12.5c.6,0,1.1.1,1.4.4Z"/>
    <path class="st0" d="M177.6,572.1c0,.3,0,.4,0,.5,0,.1.2.2.3.3.2.2.4.4.6.7s.3.7.3,1.1v1.6h-7.3v-1.6c0-.4.1-.8.3-1.1s.4-.5.6-.7c.1-.1.2-.2.3-.3,0-.1.1-.3.1-.5h0v-20.8c0-.3,0-.4-.1-.5,0-.1-.2-.2-.3-.3-.2-.2-.4-.4-.6-.7s-.3-.7-.3-1.1v-1.7h7.3v1.7c0,.4-.1.8-.3,1.1-.2.3-.4.5-.6.7-.1.1-.2.2-.3.3,0,.1,0,.3,0,.5v20.7Z"/>
    <path class="st0" d="M214.2,549.9c-.1.3-.3.5-.4.6-.2.2-.4.3-.7.4v21.2c0,.3,0,.4.1.5,0,.1.2.2.3.3.2.2.4.4.6.7s.3.7.3,1.1v1.7h-7.2v-1.7c0-.4.1-.8.3-1.1.2-.3.4-.5.6-.7.1,0,.2-.2.3-.3,0-.1,0-.3,0-.5v-14.8s0,0,0,0c0,0,0,0,0,.1-.8,1.7-1.5,3.3-2.2,4.7-.3.6-.6,1.2-.8,1.8-.3.6-.5,1.1-.7,1.6-.2.5-.4.9-.6,1.2-.2.3-.2.5-.3.6,0,.2-.3.3-.6.4-.3,0-.7.1-1.1.1s-.7,0-1.1-.1c-.3,0-.5-.2-.6-.4,0,0-.2-.3-.3-.6-.1-.3-.3-.7-.6-1.2-.2-.5-.5-1-.8-1.6-.3-.6-.5-1.2-.8-1.8-.7-1.4-1.4-2.9-2.2-4.6,0,0,0,0,0,0s0,0,0,.2v14.3c0,.3,0,.4.1.5,0,.1.2.2.3.3.2.2.4.4.6.7.2.3.3.7.3,1.1v1.7h-7.2v-1.7c0-.4.1-.8.3-1.1s.4-.5.6-.7c.1,0,.2-.2.3-.3,0-.1.1-.3.1-.5v-21.3c-.3,0-.5-.2-.7-.4-.2-.1-.3-.3-.5-.6-.1-.3-.2-.7-.2-1.1v-1.8h5.3c.4,0,.6.2.8.6l6.2,13.6,6.1-13.6c.1-.2.3-.4.6-.5.3,0,.5-.1.7-.1h5v1.8c0,.4,0,.8-.2,1.1Z"/>
    <path class="st0" d="M242.6,573.1c.2.1.4.3.6.6.2.3.3.7.3,1.1v1.6h-7.2v-1.4c0-.4,0-.8.1-1,0-.2.2-.4.3-.6.1-.1.2-.3.3-.4.1-.1.2-.3.2-.6-.1-.7-.2-1.3-.3-1.8s-.1-.8-.2-1.1c0-.3-.1-.5-.2-.6,0-.1-.2-.2-.4-.2h-3.6c-.2,0-.4,0-.5,0-.1,0-.2.2-.2.4,0,.1,0,.4,0,.7,0,.3,0,.7,0,1.1,0,.4-.1.9-.2,1.4,0,.3,0,.5.1.6s.2.3.3.5.2.3.3.5c0,.2.1.5.1.9v1.4h-7.1v-1.6c0-.4,0-.7.2-.9.1-.2.3-.4.4-.6s.3-.3.5-.5.3-.4.4-.6l2.2-10.3c.3-1.3.5-2.5.8-3.8s.5-2.4.7-3.3c.2-1,.4-1.8.5-2.4.1-.6.2-.9.2-1v-.2c0-.2,0-.4-.2-.5-.1-.1-.2-.3-.4-.4-.1-.2-.3-.4-.4-.6-.1-.3-.2-.7-.2-1.2v-1.4c1.4,0,2.5,0,3.4,0,.9,0,1.6,0,2.1.1.5.1.9.3,1.2.5.2.2.4.6.6,1.1,0,.1.1.5.3,1.2.1.7.3,1.6.6,2.7.2,1.1.5,2.4.8,3.8.3,1.4.6,2.8.9,4.3.7,3.4,1.5,7.2,2.4,11.4,0,.2.1.4.2.5.1.1.2.2.4.3ZM235.8,565c.3,0,.5-.1.4-.4l-.9-5.4c-.1-.7-.2-1.3-.4-2s-.2-1.2-.3-1.8c0-.5-.2-.9-.2-1.3,0-.3,0-.5,0-.5h0s0,.3-.1.8-.2,1.2-.3,1.9c-.1.8-.3,1.6-.4,2.6-.2.9-.3,1.8-.5,2.6-.1.8-.3,1.5-.4,2.1,0,.6-.1.9-.1,1,0,.2,0,.3,0,.4,0,0,.2,0,.5,0h2.7Z"/>
    <path class="st0" d="M265.8,547.4c.3.3.4.7.4,1.4v3.6h-1.7c-.8,0-1.3-.4-1.7-1.1-.1-.3-.3-.4-.5-.5-.2,0-.3,0-.5,0h-.7c-.2,0-.3,0-.4.2s-.2.3-.2.5v20.6c0,.3,0,.4.1.5,0,.1.2.2.3.3.2.2.4.4.6.7.2.3.3.7.3,1.1v1.7h-7.2v-1.7c0-.4.1-.8.3-1.1.2-.3.4-.5.6-.7.1,0,.2-.2.3-.3,0-.1,0-.3,0-.5v-20.6c0-.2,0-.4-.2-.5-.1,0-.3-.1-.4-.1h-.7c-.1,0-.3,0-.5.1-.2,0-.4.2-.5.5-.2.4-.3.6-.5.8-.1.2-.5.3-1.2.3h-1.8v-3.7c0-.6,0-1,.3-1.4.2-.3.6-.5,1.3-.5h12.5c.6,0,1.1.1,1.4.4Z"/>
    <path class="st0" d="M283.4,551c-.1.1-.2.2-.2.4v7.4c0,.4.2.5.5.5h4.5c.1,0,.3,0,.4.1s.2.2.2.4v2.7c0,.4-.2.5-.6.5h-4.6c-.4,0-.5.2-.5.5v8.3c0,.2,0,.3.2.4.1.1.3.2.4.2h3.4c.3,0,.4-.2.5-.5.1-.6.4-1,.8-1.2.4-.2.9-.3,1.5-.3h1.4v4.7c0,.3,0,.5-.3.7-.2.2-.4.3-.7.3h-13v-1.6c0-.6,0-1,.2-1.3s.3-.5.6-.6c.1,0,.2-.2.4-.3.1-.2.2-.3.2-.5v-20.6c0-.4-.2-.7-.5-.9-.2-.1-.4-.3-.6-.6-.1-.3-.2-.7-.2-1.2v-1.7h12.8c.3,0,.6.1.8.3s.4.4.4.6v4.4h-1.6c-.5,0-1-.1-1.3-.4-.3-.3-.5-.5-.7-.7-.1-.3-.4-.5-.8-.5h-3.3c-.1,0-.2,0-.4.2Z"/>
    <path class="st0" d="M327.3,555.8c0,.5.2,1,.7,1.4.5.4,1,.9,1.7,1.3.7.4,1.4.9,2.2,1.4.8.5,1.6,1,2.2,1.6.7.6,1.2,1.3,1.7,2.1.5.8.7,1.7.7,2.7v4.5c0,1-.2,1.9-.6,2.6s-.9,1.4-1.6,1.8c-.7.5-1.4.8-2.3,1.1-.9.2-1.8.4-2.7.4s-1.9-.1-2.7-.4c-.9-.2-1.6-.6-2.3-1.1-.6-.5-1.2-1.1-1.5-1.8s-.6-1.6-.6-2.6v-3.7h2.4c.7,0,1.2.2,1.6.6.4.4.5.9.5,1.5v2c0,.4.3.8.8,1.1.5.3,1.1.5,1.8.5s.7,0,1-.2c.3-.1.6-.2.8-.4.2-.2.4-.4.5-.5s.2-.4.2-.6v-4.2c0-.9-.2-1.6-.7-2.1-.5-.6-1-1.1-1.7-1.5-.7-.4-1.4-.8-2.2-1.2-.8-.4-1.5-.9-2.2-1.4-.7-.6-1.3-1.2-1.7-2-.5-.8-.7-1.8-.7-3v-2.9c0-1,.2-1.9.5-2.7.3-.7.8-1.4,1.4-1.8.6-.5,1.3-.8,2.1-1.1.8-.2,1.7-.3,2.7-.3s1.9.1,2.7.4c.8.2,1.5.6,2.2,1.1.6.5,1.1,1.1,1.4,1.8.3.7.5,1.6.5,2.6v3.7h-2.3c-.7,0-1.2-.3-1.6-.8-.4-.5-.7-1.1-.7-1.7v-1.2c0-.5-.2-1-.7-1.3-.5-.3-1-.5-1.5-.5s-1,.2-1.4.5c-.4.3-.6.7-.6,1.1v3.4Z"/>
    <path class="st0" d="M355.8,576.7c-1,0-1.9-.1-2.7-.4-.8-.2-1.6-.6-2.2-1.1-.6-.5-1.2-1.1-1.5-1.9-.4-.7-.6-1.6-.6-2.6v-18.2c0-1,.2-1.9.6-2.6.4-.7.9-1.4,1.5-1.8.6-.5,1.4-.8,2.2-1.1s1.8-.4,2.7-.4,1.9.1,2.7.4c.9.2,1.6.6,2.3,1.1.6.5,1.2,1.1,1.5,1.8.4.7.6,1.6.6,2.6v18.2c0,1-.2,1.9-.6,2.6-.4.7-.9,1.4-1.5,1.9-.6.5-1.4.9-2.3,1.1-.9.2-1.8.4-2.7.4ZM358.3,553c0-1-.2-1.7-.7-2.1-.5-.4-1.1-.5-1.8-.5s-1.3.2-1.8.5c-.5.4-.7,1-.7,2.1v17.2c0,1,.2,1.7.7,2.1.5.4,1.1.5,1.8.5s1.3-.2,1.8-.6c.5-.4.7-1.1.7-2.2v-17.1Z"/>
    <path class="st0" d="M390.8,547v1.6c0,.4,0,.7,0,1,0,.3-.2.6-.5.8-.1.1-.2.2-.3.3,0,0-.1.3-.1.5v24.1c0,.3,0,.5-.2.6s-.3.3-.6.3h-2.3c-.4,0-.6-.2-.8-.5-.2-.3-.4-.7-.5-1.1,0-.2-.2-.6-.5-1.3-.3-.7-.6-1.6-1-2.6-.4-1-.8-2.1-1.2-3.2-.4-1.1-.8-2.2-1.2-3.2-.4-1-.7-1.8-.9-2.4-.2-.6-.4-1-.4-1,0,0,0,0,0,0,0,0,0,0,0,.2v10.9c0,.3,0,.4.1.5,0,.1.2.2.3.3.2.2.4.4.6.7.2.3.3.7.3,1.1v1.6h-7.2v-1.6c0-.4,0-.7.3-1,.2-.3.4-.6.7-.8.1-.1.2-.2.3-.3,0,0,0-.2,0-.4v-21.1c-.3,0-.5-.2-.7-.4-.2-.2-.3-.4-.5-.7-.1-.3-.2-.7-.2-1.1v-1.8h3.4c.3,0,.7,0,1,.2s.7.5.9,1.1c0,0,.2.4.4,1.1.3.7.6,1.5,1,2.5.4,1,.8,2.1,1.3,3.3.5,1.2.9,2.3,1.3,3.4.4,1.1.8,2.1,1.1,2.9.3.8.5,1.4.6,1.8,0,0,0,0,0,0,0,0,0-.1,0-.2v-11.7c0-.3,0-.4-.1-.5,0-.1-.2-.2-.3-.3-.2-.2-.4-.4-.6-.7-.2-.3-.3-.7-.3-1.1v-1.6h6.9Z"/>
    <path class="st0" d="M416.1,575.9c0,.3-.1.4-.4.4h-1c-.1,0-.2,0-.3,0s-.1-.1-.2-.2c-.2-.4-.5-.7-.7-.7s-.4,0-.6.2c-.5.3-1.1.5-1.7.7-.6.2-1.3.3-2.1.3s-1.8-.1-2.7-.4c-.9-.3-1.6-.7-2.3-1.2s-1.2-1.2-1.6-2c-.4-.8-.6-1.7-.6-2.7v-17.4c0-1,.2-1.9.5-2.7.4-.8.9-1.4,1.5-2,.6-.5,1.4-.9,2.2-1.2.8-.3,1.8-.4,2.7-.4s1.9.1,2.7.4c.9.3,1.6.7,2.3,1.2.7.5,1.2,1.2,1.5,2,.4.8.6,1.7.6,2.7v3.1h-2.7c-.4,0-.9-.2-1.4-.5-.5-.3-.7-.9-.7-1.6v-.5c0-1-.2-1.8-.6-2.3-.4-.5-1-.7-1.7-.7s-1.3.2-1.8.7c-.4.5-.7,1.2-.7,2.3v16.5c0,1,.2,1.8.7,2.2.4.5,1,.7,1.8.7s1.3-.2,1.8-.7c.5-.5.7-1.2.7-2.2v-4.3c0-.5-.2-.8-.6-.9-.4,0-.6-.3-.8-.5-.1-.3-.2-.8-.2-1.5v-1.5h5c.4,0,.7.2.9.5.2.3.3.6.3,1v13.4Z"/>
    <path class="st0" d="M457,547v1.7c0,.4,0,.8-.3,1.1-.2.3-.4.5-.6.7-.1,0-.2.2-.3.3s-.2.3-.2.5l-2.1,23.8c-.1.8-.6,1.3-1.4,1.3h-5.6c-.3,0-.5,0-.6-.2s-.3-.4-.4-.9l-3.3-17.3-3.1,17.3c0,.4-.2.7-.3.9-.1.1-.3.2-.6.2h-5.2c-.4,0-.8-.1-1.1-.4-.3-.3-.5-.7-.6-1.2l-2.6-23.4c0-.2-.1-.4-.2-.5,0-.1-.2-.2-.3-.3-.2-.2-.4-.4-.6-.7-.2-.3-.3-.7-.3-1.1v-1.7h7.2v1.7c0,.5,0,.8-.3,1.1-.2.3-.4.5-.6.6-.2.1-.4.4-.4.8l2.2,20.6c.8-4.3,1.4-8.1,2.1-11.5.3-1.4.5-2.9.8-4.3.2-1.4.5-2.7.7-3.8.2-1.1.4-2.1.5-2.8.1-.7.2-1.2.2-1.3,0-.4.3-.7.8-.9.5-.2,1-.3,1.7-.3s.5,0,.8,0,.6,0,.8.1c.3,0,.5.2.7.4.2.2.3.4.4.7,0,.1.1.6.2,1.3.1.7.3,1.7.5,2.8.2,1.1.5,2.4.7,3.8.3,1.4.5,2.8.8,4.2.7,3.4,1.4,7.2,2.2,11.4l1.9-20.6c0-.4-.1-.7-.4-.8-.2-.1-.4-.3-.6-.6-.2-.3-.3-.7-.3-1.1v-1.7h7.2Z"/>
    <path class="st0" d="M483,572.6c.2.1.4.3.5.6.2.2.2.6.2,1v2.1h-3.8c-.7,0-1.2-.2-1.5-.6-.3-.4-.5-.9-.5-1.5v-8.7c0-.8-.2-1.3-.4-1.7-.3-.4-.9-.5-1.7-.5h-1.6c-.3,0-.5.2-.5.5v8.2c0,.3,0,.4,0,.5,0,.1.2.2.3.3.2.2.4.4.6.7.2.3.3.7.3,1.1v1.7h-7.2v-1.7c0-.4.1-.8.3-1.1.2-.3.4-.5.6-.7.1,0,.2-.2.3-.3,0-.1.1-.3.1-.5v-21.3c0-.1,0-.2-.2-.3-.2-.1-.4-.3-.7-.6-.2-.3-.4-.7-.4-1.2v-1.7h8.3c1,0,1.8.2,2.6.5.8.3,1.5.8,2,1.4.6.6,1,1.3,1.3,2.1.3.8.5,1.7.5,2.6v3.6c0,.8-.1,1.6-.4,2.3-.2.7-.6,1.3-1.1,1.7-.3.3-.3.5,0,.8.6.4,1,1.1,1.2,1.8.2.8.3,1.7.3,2.6v5.4c0,.2,0,.4.1.5,0,.1.2.2.3.3ZM478,553.3c0-.8-.2-1.4-.7-1.8-.5-.4-1-.6-1.7-.6h-1.6c-.3,0-.5.2-.5.5v7.7c0,.2,0,.4.1.4s.2.1.3.1h2c.8,0,1.3-.2,1.6-.6s.4-1,.4-1.8v-3.9Z"/>
    <path class="st0" d="M500.4,572.1c0,.3,0,.4,0,.5,0,.1.2.2.3.3.2.2.4.4.6.7.2.3.3.7.3,1.1v1.6h-7.3v-1.6c0-.4.1-.8.3-1.1s.4-.5.6-.7c.1-.1.2-.2.3-.3,0-.1.1-.3.1-.5h0v-20.8c0-.3,0-.4-.1-.5,0-.1-.2-.2-.3-.3-.2-.2-.4-.4-.6-.7s-.3-.7-.3-1.1v-1.7h7.3v1.7c0,.4-.1.8-.3,1.1-.2.3-.4.5-.6.7-.1.1-.2.2-.3.3,0,.1,0,.3,0,.5v20.7Z"/>
    <path class="st0" d="M528.4,547.4c.3.3.4.7.4,1.4v3.6h-1.7c-.8,0-1.3-.4-1.7-1.1-.1-.3-.3-.4-.5-.5-.2,0-.3,0-.5,0h-.7c-.2,0-.3,0-.4.2s-.2.3-.2.5v20.6c0,.3,0,.4.1.5,0,.1.2.2.3.3.2.2.4.4.6.7.2.3.3.7.3,1.1v1.7h-7.2v-1.7c0-.4.1-.8.3-1.1.2-.3.4-.5.6-.7.1,0,.2-.2.3-.3,0-.1,0-.3,0-.5v-20.6c0-.2,0-.4-.2-.5-.1,0-.3-.1-.4-.1h-.7c-.1,0-.3,0-.5.1-.2,0-.4.2-.5.5-.2.4-.3.6-.5.8-.1.2-.5.3-1.2.3h-1.8v-3.7c0-.6,0-1,.3-1.4.2-.3.6-.5,1.3-.5h12.5c.6,0,1.1.1,1.4.4Z"/>
    <path class="st0" d="M546,551c-.1.1-.2.2-.2.4v7.4c0,.4.2.5.5.5h4.5c.1,0,.3,0,.4.1s.2.2.2.4v2.7c0,.4-.2.5-.6.5h-4.6c-.4,0-.5.2-.5.5v8.3c0,.2,0,.3.2.4.1.1.3.2.4.2h3.4c.3,0,.4-.2.5-.5.1-.6.4-1,.8-1.2s.9-.3,1.5-.3h1.4v4.7c0,.3,0,.5-.3.7-.2.2-.4.3-.7.3h-13v-1.6c0-.6,0-1,.2-1.3s.3-.5.6-.6c.1,0,.2-.2.4-.3.1-.2.2-.3.2-.5v-20.6c0-.4-.2-.7-.5-.9-.2-.1-.4-.3-.6-.6-.1-.3-.2-.7-.2-1.2v-1.7h12.8c.3,0,.6.1.8.3s.4.4.4.6v4.4h-1.6c-.5,0-1-.1-1.3-.4-.3-.3-.5-.5-.7-.7-.1-.3-.4-.5-.8-.5h-3.3c-.1,0-.2,0-.4.2Z"/>
    <path class="st0" d="M580.4,572.6c.2.1.4.3.5.6.2.2.2.6.2,1v2.1h-3.8c-.7,0-1.2-.2-1.5-.6-.3-.4-.5-.9-.5-1.5v-8.7c0-.8-.2-1.3-.4-1.7-.3-.4-.9-.5-1.7-.5h-1.6c-.3,0-.5.2-.5.5v8.2c0,.3,0,.4,0,.5,0,.1.2.2.3.3.2.2.4.4.6.7.2.3.3.7.3,1.1v1.7h-7.2v-1.7c0-.4.1-.8.3-1.1s.4-.5.6-.7c.1,0,.2-.2.3-.3,0-.1.1-.3.1-.5v-21.3c0-.1,0-.2-.2-.3-.2-.1-.4-.3-.7-.6-.2-.3-.4-.7-.4-1.2v-1.7h8.3c1,0,1.8.2,2.6.5.8.3,1.5.8,2,1.4.6.6,1,1.3,1.3,2.1.3.8.5,1.7.5,2.6v3.6c0,.8-.1,1.6-.4,2.3-.2.7-.6,1.3-1.1,1.7-.3.3-.3.5,0,.8.6.4,1,1.1,1.2,1.8.2.8.3,1.7.3,2.6v5.4c0,.2,0,.4.1.5,0,.1.2.2.3.3ZM575.5,553.3c0-.8-.2-1.4-.7-1.8-.5-.4-1-.6-1.7-.6h-1.6c-.3,0-.5.2-.5.5v7.7c0,.2,0,.4.1.4s.2.1.3.1h2c.8,0,1.3-.2,1.6-.6s.4-1,.4-1.8v-3.9Z"/>
    <path class="st0" d="M617.2,551c-.1.1-.2.2-.2.4v7.4c0,.4.2.5.5.5h4.5c.1,0,.3,0,.4.1s.2.2.2.4v2.7c0,.4-.2.5-.6.5h-4.6c-.4,0-.5.2-.5.5v8.3c0,.2,0,.3.2.4.1.1.3.2.4.2h3.4c.3,0,.4-.2.5-.5.1-.6.4-1,.8-1.2s.9-.3,1.5-.3h1.4v4.7c0,.3,0,.5-.3.7-.2.2-.4.3-.7.3h-13v-1.6c0-.6,0-1,.2-1.3.1-.3.3-.5.6-.6.1,0,.2-.2.4-.3.1-.2.2-.3.2-.5v-20.6c0-.4-.2-.7-.5-.9-.2-.1-.4-.3-.6-.6-.1-.3-.2-.7-.2-1.2v-1.7h12.8c.3,0,.6.1.8.3s.4.4.4.6v4.4h-1.6c-.5,0-1-.1-1.3-.4-.3-.3-.5-.5-.7-.7-.1-.3-.4-.5-.8-.5h-3.3c-.1,0-.2,0-.4.2Z"/>
    <path class="st0" d="M652.4,572.7c.3.1.5.3.7.6.2.2.3.7.3,1.3v1.8h-3.4c-.7,0-1.1-.2-1.4-.6-.3-.4-.6-1-.9-1.7,0,0-.1-.3-.2-.7-.1-.4-.3-.9-.5-1.4-.2-.6-.4-1.2-.7-1.8-.2-.7-.5-1.3-.6-1.8-.2-.6-.4-1-.5-1.4-.1-.4-.2-.6-.2-.6,0,0,0-.2,0-.3,0-.2,0-.3-.1-.3,0,0-.1,0-.2.3,0,0,0,.2,0,.2-.3,1.2-.6,2.2-.9,3-.1.4-.2.7-.3,1.1,0,.4-.2.7-.3,1-.1.3-.2.7-.3.9,0,0,0,.2,0,.3,0,.1.1.3.3.4.2.2.4.4.6.7.2.3.3.7.3,1.1v1.7h-7.3v-1.7c0-.5.1-.8.3-1.1s.4-.5.6-.6c0,0,.2-.1.2-.2,0,0,.2-.3.3-.5l3.7-10c0,0,0-.2,0-.2,0,0,0-.1,0-.2,0,0,0-.1,0-.2s0,0,0-.1,0-.1,0-.2v-.2l-3.6-9.6c0-.3-.2-.5-.3-.6-.1-.1-.3-.2-.4-.2-.3-.1-.6-.3-.8-.6-.3-.2-.4-.7-.4-1.3v-1.8h3.7c.6,0,1,.2,1.3.6.3.4.5.9.7,1.5l1.3,3.9c.2.5.3,1,.5,1.4.1.5.3.9.4,1.3.1.4.2.8.4,1.2,0,0,0,.2,0,.2,0,.2.1.2.2.2s.1,0,.2-.2c0,0,0-.2,0-.3l2.4-5.7c0-.1,0-.2,0-.3,0-.1-.1-.2-.2-.3-.2-.2-.4-.4-.6-.7-.2-.3-.3-.7-.3-1.1v-1.7h6.7v1.7c0,.5,0,.8-.3,1.1-.2.3-.4.5-.6.6,0,0-.2.1-.3.2s-.2.3-.3.6c-.2.6-.4,1.1-.6,1.5-.2.5-.4,1-.6,1.6-.2.6-.5,1.2-.7,1.8-.6,1.4-1.3,3.1-2,4.9,0,0,0,.1,0,.2,0,0,0,.2,0,.3s0,.2,0,.2c0,0,0,0,0,.1l4,10c0,.2.2.4.3.5.1.1.3.2.5.3Z"/>
    <path class="st0" d="M673.9,547c1,0,1.8.2,2.4.6.7.4,1.2,1,1.6,1.6.4.7.7,1.3.8,2.1.2.7.3,1.4.3,2v5c0,2-.5,3.5-1.6,4.6-1.1,1.1-2.7,1.6-5,1.6h-1.8c-.4,0-.5.2-.5.5v6.9c0,.3,0,.4.1.5,0,.1.2.2.3.3.2.2.4.4.6.7.2.3.3.7.3,1.1v1.7h-7.2v-1.7c0-.4.1-.8.3-1.1.2-.3.4-.5.6-.7.1,0,.2-.2.3-.2,0,0,.1-.2.1-.4v-21.2c0-.2,0-.3,0-.4,0,0-.1-.1-.2-.2-.3-.2-.5-.4-.6-.7-.1-.3-.2-.7-.2-1.3v-1.5h9.5ZM674.4,553.9c0-.9-.2-1.6-.5-2.2-.3-.5-.9-.8-1.7-.8h-1.5c-.2,0-.4,0-.5.2s-.1.3-.1.5v8.9c0,.4.2.5.5.5h1.6c.8,0,1.4-.3,1.7-.8.3-.5.5-1.3.5-2.2v-4Z"/>
    <path class="st0" d="M696.2,551c-.1.1-.2.2-.2.4v7.4c0,.4.2.5.5.5h4.5c.1,0,.3,0,.4.1s.2.2.2.4v2.7c0,.4-.2.5-.6.5h-4.6c-.4,0-.5.2-.5.5v8.3c0,.2,0,.3.2.4.1.1.3.2.4.2h3.4c.3,0,.4-.2.5-.5.1-.6.4-1,.8-1.2s.9-.3,1.5-.3h1.4v4.7c0,.3,0,.5-.3.7-.2.2-.4.3-.7.3h-13v-1.6c0-.6,0-1,.2-1.3.1-.3.3-.5.6-.6.1,0,.2-.2.4-.3.1-.2.2-.3.2-.5v-20.6c0-.4-.2-.7-.5-.9-.2-.1-.4-.3-.6-.6-.1-.3-.2-.7-.2-1.2v-1.7h12.8c.3,0,.6.1.8.3s.4.4.4.6v4.4h-1.6c-.5,0-1-.1-1.3-.4-.3-.3-.5-.5-.7-.7-.1-.3-.4-.5-.8-.5h-3.3c-.1,0-.2,0-.4.2Z"/>
    <path class="st0" d="M730.6,572.6c.2.1.4.3.5.6.2.2.2.6.2,1v2.1h-3.8c-.7,0-1.2-.2-1.5-.6-.3-.4-.5-.9-.5-1.5v-8.7c0-.8-.2-1.3-.4-1.7-.3-.4-.9-.5-1.7-.5h-1.6c-.3,0-.5.2-.5.5v8.2c0,.3,0,.4,0,.5,0,.1.2.2.3.3.2.2.4.4.6.7.2.3.3.7.3,1.1v1.7h-7.2v-1.7c0-.4.1-.8.3-1.1s.4-.5.6-.7c.1,0,.2-.2.3-.3,0-.1.1-.3.1-.5v-21.3c0-.1,0-.2-.2-.3-.2-.1-.4-.3-.7-.6-.2-.3-.4-.7-.4-1.2v-1.7h8.3c1,0,1.8.2,2.6.5.8.3,1.5.8,2,1.4.6.6,1,1.3,1.3,2.1.3.8.5,1.7.5,2.6v3.6c0,.8-.1,1.6-.4,2.3-.2.7-.6,1.3-1.1,1.7-.3.3-.3.5,0,.8.6.4,1,1.1,1.2,1.8.2.8.3,1.7.3,2.6v5.4c0,.2,0,.4.1.5,0,.1.2.2.3.3ZM725.7,553.3c0-.8-.2-1.4-.7-1.8-.5-.4-1-.6-1.7-.6h-1.6c-.3,0-.5.2-.5.5v7.7c0,.2,0,.4.1.4s.2.1.3.1h2c.8,0,1.3-.2,1.6-.6.2-.4.4-1,.4-1.8v-3.9Z"/>
    <path class="st0" d="M748.1,572.1c0,.3,0,.4,0,.5,0,.1.2.2.3.3.2.2.4.4.6.7.2.3.3.7.3,1.1v1.6h-7.3v-1.6c0-.4.1-.8.3-1.1s.4-.5.6-.7c.1-.1.2-.2.3-.3,0-.1.1-.3.1-.5h0v-20.8c0-.3,0-.4-.1-.5,0-.1-.2-.2-.3-.3-.2-.2-.4-.4-.6-.7s-.3-.7-.3-1.1v-1.7h7.3v1.7c0,.4-.1.8-.3,1.1-.2.3-.4.5-.6.7-.1.1-.2.2-.3.3,0,.1,0,.3,0,.5v20.7Z"/>
    <path class="st0" d="M766.2,551c-.1.1-.2.2-.2.4v7.4c0,.4.2.5.5.5h4.5c.1,0,.3,0,.4.1s.2.2.2.4v2.7c0,.4-.2.5-.6.5h-4.6c-.4,0-.5.2-.5.5v8.3c0,.2,0,.3.2.4.1.1.3.2.4.2h3.4c.3,0,.4-.2.5-.5.1-.6.4-1,.8-1.2s.9-.3,1.5-.3h1.4v4.7c0,.3,0,.5-.3.7-.2.2-.4.3-.7.3h-13v-1.6c0-.6,0-1,.2-1.3.1-.3.3-.5.6-.6.1,0,.2-.2.4-.3.1-.2.2-.3.2-.5v-20.6c0-.4-.2-.7-.5-.9-.2-.1-.4-.3-.6-.6-.1-.3-.2-.7-.2-1.2v-1.7h12.8c.3,0,.6.1.8.3s.4.4.4.6v4.4h-1.6c-.5,0-1-.1-1.3-.4-.3-.3-.5-.5-.7-.7-.1-.3-.4-.5-.8-.5h-3.3c-.1,0-.2,0-.4.2Z"/>
    <path class="st0" d="M802.1,547v1.6c0,.4,0,.7,0,1,0,.3-.2.6-.5.8-.1.1-.2.2-.3.3,0,0-.1.3-.1.5v24.1c0,.3,0,.5-.2.6s-.3.3-.6.3h-2.3c-.4,0-.6-.2-.8-.5-.2-.3-.4-.7-.5-1.1,0-.2-.2-.6-.5-1.3-.3-.7-.6-1.6-1-2.6-.4-1-.8-2.1-1.2-3.2-.4-1.1-.8-2.2-1.2-3.2-.4-1-.7-1.8-.9-2.4-.2-.6-.4-1-.4-1,0,0,0,0,0,0,0,0,0,0,0,.2v10.9c0,.3,0,.4.1.5,0,.1.2.2.3.3.2.2.4.4.6.7.2.3.3.7.3,1.1v1.6h-7.2v-1.6c0-.4,0-.7.3-1,.2-.3.4-.6.7-.8.1-.1.2-.2.3-.3,0,0,0-.2,0-.4v-21.1c-.3,0-.5-.2-.7-.4-.2-.2-.3-.4-.5-.7-.1-.3-.2-.7-.2-1.1v-1.8h3.4c.3,0,.7,0,1,.2s.7.5.9,1.1c0,0,.2.4.4,1.1.3.7.6,1.5,1,2.5.4,1,.8,2.1,1.3,3.3.5,1.2.9,2.3,1.3,3.4.4,1.1.8,2.1,1.1,2.9.3.8.5,1.4.6,1.8,0,0,0,0,0,0,0,0,0-.1,0-.2v-11.7c0-.3,0-.4-.1-.5,0-.1-.2-.2-.3-.3-.2-.2-.4-.4-.6-.7-.2-.3-.3-.7-.3-1.1v-1.6h6.9Z"/>
    <path class="st0" d="M820.4,576.7c-1,0-1.9-.1-2.7-.4-.9-.3-1.6-.7-2.3-1.2-.6-.5-1.2-1.2-1.5-2-.4-.8-.6-1.7-.6-2.7v-17.4c0-1,.2-1.9.6-2.7.4-.8.9-1.4,1.5-2,.6-.5,1.4-.9,2.3-1.2.9-.3,1.8-.4,2.7-.4s1.9.1,2.7.4c.8.3,1.6.7,2.2,1.2.6.5,1.1,1.2,1.5,2,.4.8.5,1.7.5,2.7v3.3h-2.4c-.7,0-1.2-.2-1.7-.6-.5-.4-.7-.9-.7-1.5v-1.5c0-.5-.2-1-.7-1.5-.5-.5-1-.7-1.7-.7s-1.3.2-1.7.7c-.4.5-.6,1-.6,1.5v18.3c0,.4.2.8.7,1.3.5.4,1.1.7,1.8.7s.7,0,1-.2c.3-.1.6-.3.8-.5.2-.2.4-.4.5-.7.1-.2.2-.5.2-.7v-1.6c0-.6.2-1.1.5-1.6s.9-.7,1.5-.7h2.5v3.3c0,1-.2,1.9-.5,2.7-.4.8-.9,1.4-1.5,2-.6.5-1.4.9-2.2,1.2-.8.3-1.8.4-2.7.4Z"/>
    <path class="st0" d="M844.8,551c-.1.1-.2.2-.2.4v7.4c0,.4.2.5.5.5h4.5c.1,0,.3,0,.4.1s.2.2.2.4v2.7c0,.4-.2.5-.6.5h-4.6c-.4,0-.5.2-.5.5v8.3c0,.2,0,.3.2.4.1.1.3.2.4.2h3.4c.3,0,.4-.2.5-.5.1-.6.4-1,.8-1.2.4-.2.9-.3,1.5-.3h1.4v4.7c0,.3,0,.5-.3.7-.2.2-.4.3-.7.3h-13v-1.6c0-.6,0-1,.2-1.3s.3-.5.6-.6c.1,0,.2-.2.4-.3.1-.2.2-.3.2-.5v-20.6c0-.4-.2-.7-.5-.9-.2-.1-.4-.3-.6-.6-.1-.3-.2-.7-.2-1.2v-1.7h12.8c.3,0,.6.1.8.3s.4.4.4.6v4.4h-1.6c-.5,0-1-.1-1.3-.4-.3-.3-.5-.5-.7-.7-.1-.3-.4-.5-.8-.5h-3.3c-.1,0-.2,0-.4.2Z"/>
  </g>
  <g>
    <path class="st0" d="M318,396.1c-7.7,0-15.2-.9-22.5-2.8-7.3-1.9-13.9-4.7-19.5-8.5-5.7-3.8-10.3-8.7-13.8-14.6-3.5-5.9-5.3-12.8-5.3-20.6v-144c0-7.9,1.8-14.7,5.3-20.6,3.5-5.9,8.2-10.8,14-14.6,5.8-3.8,12.4-6.7,19.7-8.7,7.3-2,14.8-2.9,22.5-2.9s15.2,1,22.5,2.9c7.3,2,13.9,4.9,19.5,8.7,5.7,3.8,10.2,8.7,13.7,14.6,3.4,5.9,5.1,12.8,5.1,20.6v23h-23.3c-5.2,0-9.5-1.6-13-4.7-3.5-3.1-5.3-7.1-5.3-12.1v-.3c0-2.1-.3-4.1-.8-6.2-.5-2.1-1.5-3.9-2.8-5.4-1.3-1.6-3.3-2.8-5.9-3.7-2.6-.9-6-1.4-10.1-1.4s-7.1.5-9.6,1.6c-2.5,1-4.4,2.3-5.9,3.7-1.5,1.5-2.4,3.1-2.9,5-.5,1.9-.8,3.5-.8,5v135.9c0,2.9,1.9,5.8,5.6,8.8,3.7,3,8.3,4.5,13.7,4.5s10-1.2,14-3.7c3.9-2.5,5.9-5.4,5.9-8.7v-3.1c0-4.8,1.4-8.8,4.2-12.3,2.8-3.4,7-5.1,12.6-5.1h24.5v23.3c0,7.9-1.8,14.7-5.3,20.6-3.5,5.9-8.1,10.8-13.8,14.6-5.7,3.8-12.2,6.7-19.5,8.5-7.3,1.9-14.8,2.8-22.5,2.8Z"/>
    <path class="st0" d="M535.5,359.1c1.7,1,3.2,2.7,4.7,5,1.4,2.3,2.2,5.2,2.2,8.7v21.7h-62.1v-18c0-3.7.7-7.1,2.2-10.2,1.4-3.1,3-5.2,4.7-6.2,1-.8,1.9-1.7,2.6-2.5.7-.8,1.1-2.2,1.1-4-.2-1.7-.4-3.2-.6-4.7-.2-1.2-.5-2.5-.8-3.9-.3-1.3-.6-2.5-.8-3.6-.4-1.7-1.1-2.7-2.2-3.3-1-.5-2.4-.8-4-.8h-29.2c-1.9,0-3.2.2-3.9.5-.7.3-1.3,1.5-1.7,3.6-.2,1-.4,2.2-.6,3.6-.2,1.3-.5,2.6-.9,3.9-.4,1.5-.7,3-.9,4.7,0,1.9.2,3.2.6,4,.4.8,1.1,1.7,2.2,2.5,1.7,1,3.2,3.2,4.7,6.4,1.4,3.2,2.2,6.7,2.2,10.4v17.7h-61.1v-21.7c0-3.5.8-6.4,2.3-8.7,1.6-2.3,3-3.9,4.5-5,1-.8,2-1.8,2.8-2.8.8-1,1.4-2.4,1.9-4,5.8-27.5,11.1-52.2,15.8-74.2,2.1-9.3,4-18.4,5.9-27.3,1.9-8.9,3.6-16.9,5.1-23.9,1.6-7,2.8-12.7,3.7-17.1.9-4.3,1.4-6.6,1.4-6.8.4-1.7.6-3.1.6-4.5s-.5-2.2-1.6-2.6c-2.3-1-4.1-2.7-5.6-5.1-1.5-2.4-2.2-5.9-2.2-10.7v-17.7h48.1c4.8,0,8.5,1.4,11.3,4.3,2.8,2.9,4.5,6.1,5.1,9.6,0,.8.6,4,1.7,9.5,1.1,5.5,2.6,12.4,4.5,20.8,1.9,8.4,3.9,17.8,6.2,28.2,2.3,10.4,4.5,21.1,6.8,31.8,5.4,25.2,11.6,53.8,18.6,85.6.6,2.7,2.2,5,4.7,6.8ZM479,301.7c1.4,0,2.4-.2,2.8-.5.4-.3.5-1.1.3-2.3,0-.4-.4-2.6-1.1-6.5-.7-3.9-1.6-8.7-2.5-14.3-.9-5.6-2-11.6-3.1-18.2-1.1-6.5-2.2-12.6-3.1-18.2-.9-5.6-1.8-10.2-2.5-14-.7-3.7-1.1-5.7-1.1-5.9,0-.8-.3-1.2-.8-1.1-.5.1-.9.4-1.1.8,0,.2-.3,2.2-.9,6.1-.6,3.8-1.5,8.5-2.5,14.1-1,5.6-2.1,11.6-3.3,18-1.1,6.4-2.2,12.5-3.3,18.2-1,5.7-1.9,10.5-2.6,14.4-.7,3.9-1.1,6.1-1.1,6.5-.2,1.2-.1,2,.3,2.3.4.3,1.3.5,2.8.5h22.6Z"/>
    <path class="st0" d="M607.2,231.9c0,4.1,1.9,7.9,5.7,11.3,3.8,3.4,8.6,6.8,14.4,10.2,5.8,3.4,12,7,18.6,10.7,6.6,3.7,12.8,8,18.6,12.7,5.8,4.8,10.6,10.2,14.4,16.3,3.8,6.1,5.7,13.3,5.7,21.6v35.7c0,7.9-1.8,14.7-5.4,20.6-3.6,5.9-8.3,10.8-14.1,14.6-5.8,3.8-12.4,6.7-19.7,8.5-7.3,1.9-14.8,2.8-22.5,2.8s-15.2-.9-22.6-2.8c-7.4-1.9-14.1-4.7-19.9-8.5-5.8-3.8-10.4-8.7-14-14.6-3.5-5.9-5.3-12.8-5.3-20.6v-26.4h25.4c5.6,0,9.8,1.7,12.6,5.1,2.8,3.4,4.2,7.5,4.2,12.3v6.2c0,3.3,1.9,6.2,5.7,8.7,3.8,2.5,8.4,3.7,13.8,3.7s9.9-1.5,13.5-4.5c3.6-3,5.4-5.9,5.4-8.8v-24.2c0-6.8-1.9-12.5-5.7-16.9-3.8-4.4-8.6-8.4-14.3-11.8-5.7-3.4-11.9-6.7-18.6-9.8-6.7-3.1-12.9-6.9-18.6-11.3-5.7-4.4-10.4-9.8-14.3-16.1-3.8-6.3-5.7-14.3-5.7-24v-26.1c0-8.3,1.6-15.4,4.8-21.3,3.2-5.9,7.5-10.8,12.9-14.6,5.4-3.8,11.6-6.6,18.6-8.4,7-1.8,14.4-2.6,22-2.6s15,1,22,2.9c7,2,13.2,4.9,18.5,8.7,5.3,3.8,9.5,8.7,12.6,14.6,3.1,5.9,4.7,12.8,4.7,20.6v26.1h-23.3c-5.2,0-9.5-1.6-13-4.7-3.5-3.1-5.3-7.1-5.3-12.1v-6.5c0-4.3-1.7-7.7-5.1-10.1-3.4-2.4-7.2-3.6-11.3-3.6s-8,1.2-11,3.7c-3,2.5-4.5,5.3-4.5,8.4v24.2Z"/>
    <path class="st0" d="M847,359.1c1.7,1,3.2,2.7,4.7,5,1.4,2.3,2.2,5.2,2.2,8.7v21.7h-62.1v-18c0-3.7.7-7.1,2.2-10.2,1.4-3.1,3-5.2,4.7-6.2,1-.8,1.9-1.7,2.6-2.5.7-.8,1.1-2.2,1.1-4-.2-1.7-.4-3.2-.6-4.7-.2-1.2-.5-2.5-.8-3.9-.3-1.3-.6-2.5-.8-3.6-.4-1.7-1.1-2.7-2.2-3.3-1-.5-2.4-.8-4-.8h-29.2c-1.9,0-3.2.2-3.9.5-.7.3-1.3,1.5-1.7,3.6-.2,1-.4,2.2-.6,3.6-.2,1.3-.5,2.6-.9,3.9-.4,1.5-.7,3-.9,4.7,0,1.9.2,3.2.6,4,.4.8,1.1,1.7,2.2,2.5,1.7,1,3.2,3.2,4.7,6.4,1.4,3.2,2.2,6.7,2.2,10.4v17.7h-61.1v-21.7c0-3.5.8-6.4,2.3-8.7,1.6-2.3,3-3.9,4.5-5,1-.8,2-1.8,2.8-2.8.8-1,1.4-2.4,1.9-4,5.8-27.5,11.1-52.2,15.8-74.2,2.1-9.3,4-18.4,5.9-27.3,1.9-8.9,3.6-16.9,5.1-23.9,1.6-7,2.8-12.7,3.7-17.1.9-4.3,1.4-6.6,1.4-6.8.4-1.7.6-3.1.6-4.5s-.5-2.2-1.6-2.6c-2.3-1-4.1-2.7-5.6-5.1-1.5-2.4-2.2-5.9-2.2-10.7v-17.7h48.1c4.8,0,8.5,1.4,11.3,4.3,2.8,2.9,4.5,6.1,5.1,9.6,0,.8.6,4,1.7,9.5,1.1,5.5,2.6,12.4,4.5,20.8,1.9,8.4,3.9,17.8,6.2,28.2,2.3,10.4,4.5,21.1,6.8,31.8,5.4,25.2,11.6,53.8,18.6,85.6.6,2.7,2.2,5,4.7,6.8ZM790.6,301.7c1.4,0,2.4-.2,2.8-.5.4-.3.5-1.1.3-2.3,0-.4-.4-2.6-1.1-6.5-.7-3.9-1.6-8.7-2.5-14.3-.9-5.6-2-11.6-3.1-18.2-1.1-6.5-2.2-12.6-3.1-18.2-.9-5.6-1.8-10.2-2.5-14-.7-3.7-1.1-5.7-1.1-5.9,0-.8-.3-1.2-.8-1.1-.5.1-.9.4-1.1.8,0,.2-.3,2.2-.9,6.1-.6,3.8-1.5,8.5-2.5,14.1-1,5.6-2.1,11.6-3.3,18-1.1,6.4-2.2,12.5-3.3,18.2-1,5.7-1.9,10.5-2.6,14.4-.7,3.9-1.1,6.1-1.1,6.5-.2,1.2-.1,2,.3,2.3.4.3,1.3.5,2.8.5h22.6Z"/>
  </g>
  <g>
    <path class="st0" d="M284.4,520.6c-3.8,0-7.3-.6-10.6-1.7-3.3-1.1-6.3-2.7-8.7-4.8-2.5-2.1-4.5-4.6-5.9-7.7-1.5-3-2.2-6.5-2.2-10.3v-67.5c0-3.8.7-7.3,2.2-10.3,1.5-3,3.4-5.6,5.9-7.7,2.5-2.1,5.4-3.7,8.7-4.8,3.3-1.1,6.9-1.7,10.6-1.7s7.3.6,10.6,1.7c3.3,1.1,6.2,2.7,8.7,4.8,2.5,2.1,4.4,4.6,5.9,7.7,1.4,3,2.1,6.5,2.1,10.3v12.9h-9.1c-2.5,0-4.7-.8-6.5-2.4-1.8-1.6-2.7-3.6-2.7-6v-5.8c0-1.9-.9-3.8-2.7-5.7-1.8-1.9-4-2.8-6.8-2.8s-5.1.9-6.8,2.8c-1.7,1.9-2.5,3.8-2.5,5.7v71c0,1.6.9,3.3,2.7,5,1.8,1.7,4.2,2.6,7,2.6s2.7-.3,3.9-.8c1.2-.5,2.2-1.2,3-2,.9-.8,1.5-1.7,2-2.6.5-.9.7-1.8.7-2.7v-6.1c0-2.3.7-4.4,2.1-6.1,1.4-1.7,3.4-2.6,6-2.6h9.6v12.9c0,3.9-.7,7.3-2.1,10.3-1.4,3-3.4,5.6-5.9,7.7-2.5,2.1-5.4,3.7-8.7,4.8-3.3,1.1-6.8,1.7-10.6,1.7Z"/>
    <path class="st0" d="M373.9,520.6c-3.8,0-7.3-.5-10.6-1.4-3.3-.9-6.2-2.3-8.7-4.3-2.5-1.9-4.5-4.3-5.9-7.2-1.5-2.9-2.2-6.3-2.2-10.1v-70.5c0-3.8.7-7.2,2.2-10.1,1.5-2.9,3.4-5.3,5.9-7.1,2.5-1.9,5.4-3.3,8.7-4.3,3.3-1,6.8-1.4,10.6-1.4s7.3.5,10.6,1.4c3.3,1,6.3,2.4,8.7,4.3,2.5,1.9,4.5,4.3,5.9,7.1,1.5,2.9,2.2,6.3,2.2,10.1v70.5c0,3.9-.7,7.2-2.2,10.1-1.5,2.9-3.4,5.3-5.9,7.2-2.5,1.9-5.4,3.3-8.7,4.3-3.3.9-6.9,1.4-10.6,1.4ZM383.6,429c0-4-.9-6.6-2.7-8-1.8-1.4-4.2-2.1-7-2.1s-5,.7-6.8,2.1c-1.8,1.4-2.7,4-2.7,8v66.9c0,4,.9,6.6,2.7,8.1,1.8,1.4,4.1,2.1,6.8,2.1s5.2-.8,7-2.4c1.8-1.6,2.7-4.4,2.7-8.4v-66.3Z"/>
    <path class="st0" d="M497.5,405.7v6.4c0,1.4-.1,2.7-.3,4-.2,1.2-.9,2.3-2,3.2-.4.4-.7.8-1,1.1-.3.4-.4,1-.4,1.9v93.6c0,1-.3,1.9-.8,2.5-.5.7-1.3,1-2.4,1h-8.8c-1.4,0-2.5-.6-3.3-1.8-.8-1.2-1.4-2.6-2.1-4.3-.2-.6-.9-2.3-2-5.2-1.1-2.8-2.4-6.2-3.9-10.1-1.5-3.9-3.1-8.1-4.8-12.5-1.7-4.4-3.3-8.5-4.7-12.2-1.4-3.7-2.6-6.9-3.6-9.3-1-2.5-1.4-3.8-1.4-3.9,0-.2,0-.3-.2-.4-.1,0-.2.2-.2.7v42.4c0,1,.2,1.7.5,2.1.3.4.7.8,1.1,1.2.8.6,1.6,1.5,2.4,2.6.8,1.1,1.2,2.5,1.2,4.3v6.4h-28.1v-6.4c0-1.4.4-2.7,1.1-4,.7-1.2,1.6-2.3,2.7-3.2.5-.5.9-.9,1.1-1.3.2-.4.3-.9.3-1.7v-81.8c-1-.3-1.9-.8-2.6-1.5-.7-.6-1.3-1.5-1.8-2.6-.5-1.1-.8-2.5-.8-4.3v-7h13.2c1.2,0,2.5.3,4,.8,1.4.6,2.5,2,3.3,4.3.1.2.7,1.6,1.7,4.1,1,2.5,2.3,5.7,3.7,9.6,1.5,3.9,3.1,8.1,4.9,12.6,1.8,4.6,3.5,8.9,5.1,13.1,1.6,4.2,3,8,4.3,11.2,1.2,3.3,2,5.6,2.4,6.9,0,.3.2.3.3,0,0-.3.2-.5.2-.8v-45.4c0-1-.2-1.7-.5-2.1s-.7-.8-1.1-1.2c-.8-.6-1.6-1.5-2.4-2.6-.8-1.1-1.2-2.5-1.2-4.3v-6.4h26.8Z"/>
    <path class="st0" d="M556.5,520.6c-3.8,0-7.3-.6-10.6-1.7-3.3-1.1-6.3-2.7-8.7-4.8-2.5-2.1-4.5-4.6-5.9-7.7-1.5-3-2.2-6.5-2.2-10.3v-67.5c0-3.8.7-7.3,2.2-10.3,1.5-3,3.4-5.6,5.9-7.7,2.5-2.1,5.4-3.7,8.7-4.8,3.3-1.1,6.9-1.7,10.6-1.7s7.3.6,10.6,1.7c3.3,1.1,6.2,2.7,8.7,4.8,2.5,2.1,4.4,4.6,5.9,7.7,1.4,3,2.1,6.5,2.1,10.3v12.9h-9.1c-2.5,0-4.7-.8-6.5-2.4-1.8-1.6-2.7-3.6-2.7-6v-5.8c0-1.9-.9-3.8-2.7-5.7-1.8-1.9-4-2.8-6.8-2.8s-5.1.9-6.8,2.8c-1.7,1.9-2.5,3.8-2.5,5.7v71c0,1.6.9,3.3,2.7,5,1.8,1.7,4.2,2.6,7,2.6s2.7-.3,3.9-.8c1.2-.5,2.2-1.2,3-2,.9-.8,1.5-1.7,2-2.6.5-.9.7-1.8.7-2.7v-6.1c0-2.3.7-4.4,2.1-6.1,1.4-1.7,3.4-2.6,6-2.6h9.6v12.9c0,3.9-.7,7.3-2.1,10.3-1.4,3-3.4,5.6-5.9,7.7-2.5,2.1-5.4,3.7-8.7,4.8-3.3,1.1-6.8,1.7-10.6,1.7Z"/>
    <path class="st0" d="M638.7,421.1c-.4.5-.6.9-.6,1.4v28.7c0,1.4.7,2.1,2.1,2.1h17.6c.5,0,1,.2,1.6.5.6.4.8.9.8,1.7v10.6c0,1.4-.8,2.1-2.3,2.1h-17.8c-1.4,0-2.1.7-2.1,2.1v32.2c0,.7.3,1.3.8,1.7.5.4,1,.6,1.5.6h13.2c1,0,1.7-.6,2-1.8.5-2.2,1.5-3.7,3-4.6,1.5-.8,3.4-1.2,5.7-1.2h5.3v18.1c0,1.1-.4,2-1.1,2.7-.8.7-1.7,1.1-2.8,1.1h-50.5v-6.1c0-2.2.3-3.9.8-5.1.6-1.2,1.3-2,2.4-2.5.5-.2,1-.6,1.4-1.2.4-.6.6-1.3.6-2v-79.8c0-1.6-.7-2.8-2.1-3.5-.9-.5-1.6-1.3-2.2-2.4-.6-1.1-.8-2.6-.8-4.6v-6.5h49.6c1.1,0,2.2.4,3.3,1.3,1.1.9,1.6,1.7,1.6,2.5v17.2h-6.1c-2.1,0-3.8-.5-5-1.5-1.2-1-2.1-2-2.6-2.9-.5-1.2-1.6-1.8-3.2-1.8h-12.6c-.5,0-1,.2-1.4.7Z"/>
    <path class="st0" d="M760.1,505c.8.5,1.5,1.2,2.1,2.2.6,1,.9,2.3.9,4v8.2h-14.7c-2.6,0-4.6-.8-5.9-2.4-1.3-1.6-2-3.5-2-5.8v-33.7c0-2.9-.6-5.1-1.7-6.5-1.2-1.4-3.3-2.1-6.5-2.1h-6.4c-1.3,0-2,.7-2,2.1v31.9c0,1,.1,1.7.4,2.1.3.4.6.8,1.1,1.1.8.6,1.6,1.5,2.4,2.6.8,1.1,1.2,2.5,1.2,4.3v6.5h-28.1v-6.5c0-1.7.4-3.1,1.2-4.3.8-1.1,1.6-2,2.4-2.6.4-.3.8-.7,1.1-1.1.3-.4.5-1.1.5-2v-82.5c0-.5-.3-.9-.8-1.1-.8-.5-1.7-1.3-2.7-2.4-1-1.1-1.4-2.7-1.4-4.7v-6.5h32.1c3.7,0,7.2.6,10.3,1.9,3.1,1.3,5.7,3,7.9,5.2,2.2,2.2,3.8,4.9,5,8,1.2,3.1,1.7,6.5,1.7,10.3v14c0,3.2-.5,6.2-1.4,8.9-.9,2.7-2.4,4.9-4.4,6.6-1.2,1-1.2,2,.2,3,2.3,1.7,3.9,4.1,4.6,7.1.7,3,1.1,6.4,1.1,10.2v20.8c0,.9.2,1.6.5,2.1.4.5.8.8,1.3,1.1ZM741,430c0-3.1-.9-5.5-2.7-7.1-1.8-1.6-3.9-2.4-6.5-2.4h-6.1c-1.2,0-1.8.7-1.8,2.1v29.9c0,.8.2,1.4.5,1.7.4.3.7.5,1.1.5h7.8c3.1,0,5.2-.8,6.2-2.5,1-1.7,1.4-4,1.4-7.1v-15Z"/>
    <path class="st0" d="M851.1,407.2c1.1,1,1.6,2.8,1.6,5.5v14.1h-6.7c-2.9,0-5.1-1.4-6.5-4.3-.5-1-1.1-1.6-1.8-1.8-.7-.2-1.3-.3-1.8-.3h-2.9c-.6,0-1.1.2-1.6.7-.5.5-.7,1.1-.7,1.9v79.8c.1,1,.3,1.7.5,2.1.3.4.6.8,1.1,1.1.8.6,1.6,1.5,2.4,2.6.8,1.1,1.1,2.5,1.1,4.3v6.5h-28v-6.5c0-1.7.4-3.1,1.2-4.3.8-1.1,1.6-2,2.4-2.6.5-.3.9-.7,1.1-1.1.3-.4.4-1.1.4-2.1v-80.1c0-.8-.3-1.4-.8-1.7-.5-.4-1-.5-1.5-.5h-2.6c-.4,0-1,.2-1.9.5-.9.4-1.5.9-1.9,1.7-.6,1.4-1.2,2.5-1.7,3.2-.6.7-2.1,1.1-4.6,1.1h-6.8v-14.3c0-2.3.4-4.1,1.1-5.2.8-1.2,2.5-1.7,5.1-1.7h48.5c2.4,0,4.2.5,5.2,1.5Z"/>
  </g>
  <g>
    <path class="st0" d="M246.9,408.5l-92-79.6v-106.4c0-.6.5-1.1,1.1-1.1,4.7,0,8.5-3.8,8.5-8.5v-2c1.4.4,2.8.6,4.3.6,7.7,0,14-5.9,14-13.1v-5.2c0-4.6-2.6-8.7-6.4-11.1,3.4-2.4,5.6-6.2,5.6-10.5v-5.2c0-4.3-2.2-8.1-5.6-10.5,3.7-2.4,6.2-6.4,6.2-10.9v-5.2c0-7.3-6.3-13.1-14-13.1s-3,.2-4.3.6c-1.2-5.5-6.2-9.6-12.1-9.6h-52.6c-5.9,0-10.8,4.1-12,9.6-1.3-.4-2.6-.5-4-.5-7.7,0-14,5.9-14,13.1v5.2c0,4.3,2.2,8,5.5,10.5-3.7,2.4-6.1,6.3-6.1,10.9v5.2c0,4.6,2.5,8.7,6.4,11.1-3.4,2.4-5.6,6.2-5.6,10.5v5.2c0,7.2,6.3,13.1,14,13.1s2.3-.1,3.4-.4v1.8c0,4.7,3.8,8.5,8.5,8.5s1.1.5,1.1,1.1v107L4.7,408.5c-2.7,2.3-3.7,6.1-2.4,9.4,1.2,3.3,4.4,5.6,8,5.6h14.2v113.7h8.5v-122.2H10.2l94.9-81.6v-110.9c0-5.3-4.3-9.6-9.6-9.6v-13.9h-6.5c-.4,2.2-2.6,4-5.4,4s-5.5-2.1-5.5-4.6v-5.2c0-2.5,2.5-4.6,5.5-4.6s5,1.8,5.4,4h6.5v-20.3h-7.3c-.4,2.3-2.7,4-5.4,4s-5.5-2.1-5.5-4.6v-5.2c0-2.5,2.5-4.6,5.5-4.6s5.1,1.8,5.4,4h7.3v-20.1h-6.7c-.4,2.2-2.7,4-5.4,4s-5.5-2.1-5.5-4.6v-5.2c0-2.5,2.5-4.6,5.5-4.6s5.1,1.8,5.4,4h6.7v-9.2c0-2.1,1.7-3.9,3.9-3.9h52.6c2.2,0,3.9,1.7,3.9,3.9v9.2h7.1c.4-2.2,2.6-4,5.4-4s5.5,2.1,5.5,4.6v5.2c0,2.5-2.5,4.6-5.5,4.6s-5-1.8-5.4-4h-7.1v20.1h6.5c.4-2.3,2.6-4,5.4-4s5.5,2.1,5.5,4.6v5.2c0,2.5-2.5,4.6-5.5,4.6s-5-1.8-5.4-4h-6.5v20.3h7.3c.4-2.2,2.7-4,5.4-4s5.5,2.1,5.5,4.6v5.2c0,2.5-2.5,4.6-5.5,4.6s-5.1-1.8-5.4-4h-7.3v13.9c-5.3,0-9.6,4.3-9.6,9.6v110.3l94.9,82.2h-22.7v105.6h8.5v-97.1h14.2c3.6,0,6.7-2.2,8-5.5,1.2-3.3.3-7.1-2.4-9.4Z"/>
    <g>
      <rect class="st0" x="135.2" y="134.8" width="11.8" height="73.3" rx="3.9" ry="3.9"/>
      <rect class="st0" x="103.5" y="134.8" width="11.8" height="73.3" rx="3.9" ry="3.9"/>
      <path class="st0" d="M163.9,436.4c-.5-1.2-1-2.5-1.5-3.6-1.1-2.4-2.5-4.6-4.1-6.7-4.6-6.1-10.8-10.8-18-13.6v-192.9h-3.4v191.7c-3-.9-6.2-1.4-9.5-1.5v-190.2h-3.4v190.2c-1.5,0-3,.2-4.5.4-1.3.2-2.7.5-4,.8-.3,0-.7.2-1,.3v-191.7h-3.4v192.9c-.4.2-.8.3-1.2.5-.6.3-1.2.5-1.8.8-4.7,2.3-9,5.5-12.5,9.3-.4.5-.9,1-1.3,1.5-5.8,7-9.3,16-9.3,25.9s3.5,18.8,9.3,25.9c.4.5.8,1,1.3,1.5,3.5,3.9,7.7,7,12.5,9.3.6.3,1.2.6,1.8.8.4.2.8.3,1.2.5v16h-4.7v6.3h38.2v-6.3h-4.4v-16c7.2-2.8,13.4-7.5,18-13.6,1.6-2.1,2.9-4.3,4.1-6.7.6-1.2,1.1-2.4,1.5-3.6,1.6-4.4,2.5-9.1,2.5-14s-.9-9.6-2.5-14ZM136,419.8c.2.1.4.2.6.3v60.7c-.2.1-.4.2-.6.3-.5,0-.9.1-1.4.3-2.3.7-4.7,1.1-7.1,1.2v-64.2c2.4.1,4.8.5,7.1,1.2.5.1.9.2,1.4.3ZM115.5,419.8c.5,0,.9-.1,1.4-.3l.8-.2c1-.3,2.1-.5,3.1-.6,1-.2,2.1-.3,3.2-.3v64.2c-1.1,0-2.2-.2-3.2-.3-1.1-.2-2.1-.4-3.2-.6l-.8-.2c-.5-.1-.9-.2-1.4-.3-.3-.2-.6-.3-.9-.5v-60.4c.3-.1.6-.3.9-.4ZM101.9,472c-.3-.4-.7-.8-1-1.2-4.7-5.7-7.3-13-7.3-20.4s2.6-14.7,7.3-20.5c.3-.4.7-.8,1-1.2,2.6-2.9,5.7-5.2,9.2-7v57.3c-3.5-1.8-6.6-4.1-9.2-7ZM124,504.3h-9.5v-14.8c.3,0,.7.2,1,.3,1.3.3,2.6.6,4,.8,1.5.2,3,.4,4.5.4v13.3ZM136.9,504.3h-9.5v-13.3c3.3-.1,6.4-.7,9.5-1.5v14.8ZM156,461.5h0c-.4,1-.8,1.9-1.2,2.9-.9,1.9-2,3.6-3.2,5.3-3,4.1-7,7.3-11.5,9.5v-57.6c4.5,2.2,8.4,5.5,11.5,9.5,1.2,1.7,2.3,3.4,3.2,5.3.4.9.9,1.9,1.2,2.9,1.3,3.5,1.9,7.3,1.9,11.1s-.7,7.5-1.9,11.1Z"/>
    </g>
  </g>
  <rect class="st0" x="24.4" y="528.6" width="828.3" height="8.5"/>
  <path class="st1" d="M155.4,91.1s1-5.3-1.9-9.3c-2.9-4-5.6-7.3-6.4-10,0,0-1.8-.4-2.2.8-.4,1.2-8.7,28.4-8.7,28.4,0,0-1.7-1.7-5.5-1.3-3.8.4-5.2,2.8-5.2,5.4,0,2.6,3.6,4.7,6.8,4.5,3.2-.2,5-1.4,5.7-3.1.7-1.7,8.4-27.6,8.4-27.6,0,0,5.7,1.8,9.1,12.2h0Z"/>
  <path class="st1" d="M199.9,83s-1.4-1.8-4.8-1.5c-3.3.3-4.5,2.6-4.8,4.7-.3,2.1,1.7,4.9,5,5.3,3.3.5,5.8-1.8,6.3-4.2.5-2.4,2.3-24.3,2.3-24.3l-21.6,3.2-1.8,19.9s-2.1-2.4-6.1-1.4c-4,1.1-3.6,4.7-3.4,5.7.2,1.1,1.9,4.2,6,4,4.1-.2,5-3.3,5.3-5.4.2-2.1,1.5-16.3,1.5-16.3l17.3-2.5-1.3,12.7h0Z"/>
  <path class="st1" d="M131.8,74.8s-1.1-1.3-3.6-1.1c-2.5.2-3.4,1.9-3.6,3.5-.2,1.6,1.3,3.7,3.8,4,2.5.3,4.3-1.4,4.7-3.2.4-1.8,1.7-18.2,1.7-18.2l-1.7.3-1.3,14.8h0Z"/>
  <path class="st1" d="M181.2,38.1c1.5.9.1,5.2-2,7.3-1.8,1.7-3.4,2.5-5.6,2.9-.4,1-.8,2-1.2,3,.3.2.6.3.9.6,2.1,1.8,2,5.1-.7,7.3-1.1.9-2.5,1.2-3.8,1-.7,1.8-1.4,3.4-1.7,4-.7,1.3-2.7,2.4-4.7,1.5-2-.9-2.7-2.9-2.2-4.3.5-1.4,2.2-2,3.1-1.6.9.4,1.8,1.6,1,3.1-.8,1.5-2.5.8-2.5.8,0,.8,1.5,1.3,2.6,1.3,1.1,0,2.1-1.9,2.5-2.7.2-.5.6-1.4,1-2.4-1.5-.5-2.8-1.7-3.4-3.2-1.2-3-.7-5,.4-7,1.2-2,2.9-2.8,5.4-3.6,1.4-.5,2.5-.6,3.7-.8.2-.5.4-.9.5-1.2.5-1.2,1.6-3.2,3.2-4.7,1.6-1.5,3-1.8,3.8-1.4h0ZM172.2,48.6c-.1,0-.2,0-.4,0-3.1.5-5.9,1.7-6.7,3.5-.9,1.8-.7,3.6.3,5,.7.9,1.6,1.5,2.5,1.9.1-.3.2-.5.3-.8.3-.7,1.2-3,2-5-1.1-.3-2.2.3-2.6,1-.5.9-.2,2,0,2.6.2.5,0,.7-.3.6-.3-.1-2-1.9-.7-4.3.9-1.7,2.8-2.5,4.5-2.1.3-.7.5-1.2.6-1.4,0-.2.2-.6.4-1h0ZM169,59.2c.1,0,.2,0,.3,0,1.2,0,2.5-1,2.9-2.6.3-1.3,0-2.3-.9-2.9v.2c-.7,1.3-1.5,3.4-2.3,5.3h0ZM174.9,45.2c.5-.1,1-.2,1.5-.4,2.7-.8,4.3-3.4,3.2-4-1.1-.5-3.3,1.5-4.2,3.3-.1.3-.3.6-.5,1h0Z"/>
  <path class="st1" d="M224.1,39.5c2.4-.1,3.9,5.9,2.9,9.8-.8,3.2-2.1,5.2-4.3,7.3.2,1.4.5,2.9.7,4.3.5,0,.9,0,1.4,0,3.7.5,5.9,4.3,4.3,8.8-.6,1.8-2,3.1-3.7,3.8.4,2.6.8,4.8.9,5.7.2,1.9-1.4,4.7-4.3,5.1-2.9.4-5.2-1.4-5.6-3.4-.4-1.9,1.1-3.8,2.4-4,1.3-.2,3.2.6,3.3,2.8,0,2.3-2.2,2.7-2.2,2.7.6.9,2.7.4,3.9-.3,1.3-.8,1-3.6.9-4.8,0-.7-.3-2-.6-3.4-2.1.5-4.4,0-6.1-1.2-3.5-2.6-4.4-5.1-4.5-8.3,0-3.1,1.4-5.2,3.6-7.9,1.3-1.6,2.4-2.5,3.6-3.5-.1-.7-.2-1.3-.3-1.8-.3-1.8-.4-4.8.4-7.6.8-2.8,2.1-4.2,3.3-4.3h0ZM221.3,57.8c-.1.1-.2.2-.4.3-3.2,2.7-5.5,6.1-5.2,8.7.2,2.6,1.8,4.6,3.9,5.4,1.4.5,2.9.6,4.2.3,0-.4-.1-.8-.2-1.1-.2-1-.7-4.2-1.2-7.2-1.4.5-2.3,1.8-2.3,3,0,1.3,1.2,2.5,1.8,2.9.7.5.5.9,0,.9-.4,0-3.6-.8-3.9-4.4-.2-2.6,1.4-4.8,3.7-5.6-.2-1-.3-1.7-.3-2,0-.3-.1-.8-.2-1.4h0ZM225.2,72.1c.1,0,.2-.1.3-.2,1.4-.9,2.1-2.9,1.4-5-.6-1.7-1.7-2.6-3.1-2.7v.3c.4,1.9.8,4.8,1.3,7.6h0ZM222,52c.5-.4.9-.9,1.5-1.5,2.5-2.9,2.5-7,.8-6.8-1.6.2-2.7,4-2.5,6.8,0,.4,0,.9.2,1.5h0Z"/>
  <path class="st1" d="M275.5,21.7s1-5.3-1.9-9.3c-2.9-4-5.6-7.3-6.4-10,0,0-1.8-.4-2.2.8-.4,1.2-8.7,28.4-8.7,28.4,0,0-1.7-1.7-5.5-1.3-3.8.4-5.2,2.8-5.2,5.4,0,2.6,3.6,4.7,6.8,4.5,3.2-.2,5-1.4,5.7-3.1.7-1.7,8.4-27.6,8.4-27.6,0,0,5.7,1.8,9.1,12.2h0Z"/>
  <path class="st1" d="M293.5,41.5s-1.1-1.3-3.6-1.1c-2.5.2-3.4,1.9-3.6,3.5-.2,1.6,1.3,3.7,3.8,4,2.5.3,4.3-1.4,4.7-3.2.4-1.8,1.7-18.2,1.7-18.2l-1.7.3-1.3,14.8h0Z"/>
  <path class="st1" d="M265.3,64.2s-1.8-.4-3.9,1.5c-2,1.9-1.6,4-.7,5.5.9,1.5,3.6,2.3,6,.9,2.4-1.4,2.8-4.1,1.9-6-.9-1.8-11-16.9-11-16.9l-12.3,13.1,9.1,13.8s-2.6-.5-4.7,2.2c-2,2.7,0,4.9.7,5.5.7.6,3.4,1.8,6-.5,2.5-2.2,1.6-4.7.7-6.2-.9-1.5-7.4-11.4-7.4-11.4l9.9-10.5,5.7,8.9h0Z"/>
</svg>